<svg width="222" height="14" viewBox="0 0 222 14" fill="none" xmlns="http://www.w3.org/2000/svg">
<path d="M5.02654 3.9924V2.58874H8.02032V1.43888H0.623913V2.58874H3.6177V3.9924C3.60734 6.24551 2.14152 8.71616 0.162932 9.63812L0.976123 10.7362C2.49891 9.99551 3.73165 8.40021 4.34284 6.53557C4.95402 8.2759 6.1764 9.72617 7.72509 10.4099L8.48648 9.31181C6.46645 8.452 5.02654 6.18336 5.02654 3.9924ZM9.6726 13.2431H11.0711V0.118094H9.6726V13.2431ZM23.5767 0.786256H14.5901V1.9154H22.1937C22.1937 2.91505 22.1782 4.03902 21.8363 5.57735H13.0881V6.71167H25.0995V5.57735H23.2348C23.5767 3.98204 23.5767 2.80628 23.5767 1.78073V0.786256ZM14.5487 13.0773H23.5922V8.37949H14.5487V13.0773ZM15.9109 11.9482V9.47238H22.2144V11.9482H15.9109ZM40.4152 0.118094H39.0271V13.2431H40.4152V0.118094ZM29.6314 9.67438L29.8282 10.8346C32.2315 10.8346 35.4066 10.7983 38.3175 10.3166L38.2139 9.27037C37.0588 9.42058 35.8313 9.51381 34.6193 9.57079V8.3018C36.1369 8.08943 37.1262 7.18819 37.1262 5.9192C37.1262 4.43785 35.8209 3.46409 33.9045 3.46409C31.9984 3.46409 30.7087 4.43785 30.7191 5.9192C30.7087 7.19855 31.7032 8.10497 33.2312 8.30698V9.62258C31.9466 9.65884 30.7139 9.6692 29.6314 9.67438ZM29.9059 2.79592H37.9187V1.68232H34.6245V0.143992H33.2312V1.68232H29.9059V2.79592ZM32.0295 5.9192C32.0191 5.08011 32.8013 4.54144 33.9045 4.54144C35.0285 4.54144 35.8002 5.08011 35.8002 5.9192C35.8002 6.75311 35.0285 7.27106 33.9045 7.26588C32.8013 7.27106 32.0191 6.75311 32.0295 5.9192ZM53.3714 0.128453H51.9729V7.84081H49.3314V8.82493H51.9729V10.0836H53.3714V0.128453ZM42.3856 6.1212L42.5617 7.23999C43.6287 7.24517 44.851 7.23481 46.1252 7.18819V9.67438H47.5133V7.1105C48.6735 7.03798 49.8493 6.91885 50.9785 6.73239L50.8852 5.72755C48.0883 6.07976 44.8148 6.10566 42.3856 6.1212ZM43.4111 2.94095C43.4111 4.34461 44.7371 5.23032 46.6846 5.23032C48.601 5.23032 49.9322 4.34461 49.9425 2.94095C49.9322 1.55801 48.601 0.63087 46.6846 0.63087C44.7371 0.63087 43.4111 1.55801 43.4111 2.94095ZM44.2036 12.9738H53.6822V11.8343H45.5917V9.10981H44.2036V12.9738ZM44.7319 2.94095C44.7267 2.16402 45.5192 1.6616 46.6846 1.66678C47.8034 1.6616 48.6062 2.16402 48.6166 2.94095C48.6062 3.72307 47.8034 4.20994 46.6846 4.20994C45.5192 4.20994 44.7267 3.72307 44.7319 2.94095ZM65.5662 0.118094H64.1729V13.2276H65.5662V6.51485H67.6018V5.34945H65.5662V0.118094ZM55.3469 9.73135L56.1239 10.8087C60.4488 8.6799 62.1218 5.29247 62.1322 1.50621H56.0048V2.65608H60.7181C60.4229 5.7172 58.6411 8.08943 55.3469 9.73135ZM79.1181 0.118094H77.7248V7.16229H79.1181V0.118094ZM68.4948 3.77486C68.4948 5.56181 69.9762 6.81008 71.991 6.8049C74.0007 6.81008 75.4769 5.56181 75.4769 3.77486C75.4769 1.96202 74.0007 0.713743 71.991 0.724101C69.9762 0.713743 68.4948 1.96202 68.4948 3.77486ZM69.857 3.77486C69.8467 2.64572 70.7427 1.88432 71.991 1.89468C73.2237 1.88432 74.1146 2.64572 74.1146 3.77486C74.1146 4.89883 73.2237 5.65504 71.991 5.66022C70.7427 5.65504 69.8467 4.89883 69.857 3.77486ZM70.5252 13.0773H79.1181V7.79938H77.7351V9.27037H71.8874V7.79938H70.5252V13.0773ZM71.8874 11.943V10.3684H77.7351V11.943H71.8874ZM85.9365 3.45891V1.21098H84.538V3.45891C84.5277 5.96581 83.0774 8.47272 81.0107 9.39468L81.8705 10.5549C83.44 9.79351 84.6468 8.20338 85.2528 6.28177C85.8692 8.07907 87.0605 9.55525 88.5677 10.2752L89.4068 9.16678C87.3712 8.27072 85.9261 5.85704 85.9365 3.45891ZM90.5929 13.269H91.9914V0.118094H90.5929V13.269ZM101.656 12.145C103.858 12.145 105.432 10.6481 105.427 8.56595C105.432 6.50967 103.956 5.03349 101.957 5.03349C101.149 5.03349 100.408 5.32355 99.9625 5.73791H99.8589L100.221 2.77521H104.893V1.39226H98.8852L98.1911 7.29696H99.7087C100.076 6.64434 100.724 6.35946 101.584 6.36464C102.91 6.375 103.863 7.3125 103.863 8.60221C103.863 9.86602 102.941 10.7932 101.656 10.7932C100.579 10.7932 99.7139 10.1354 99.6362 9.22894H98.0668C98.1341 10.9227 99.6414 12.145 101.656 12.145ZM110.756 12.1709C113.211 12.1709 114.651 10.1768 114.651 6.70131C114.651 3.25173 113.195 1.24724 110.756 1.24724C108.321 1.24724 106.866 3.24655 106.866 6.70131C106.861 10.1768 108.306 12.1709 110.756 12.1709ZM108.471 6.70131C108.471 4.05974 109.336 2.61982 110.756 2.61982C112.18 2.61982 113.045 4.05974 113.045 6.70131C113.045 9.34807 112.19 10.7828 110.756 10.7828C109.326 10.7828 108.466 9.34807 108.471 6.70131ZM119.938 12.1709C122.394 12.1709 123.833 10.1768 123.833 6.70131C123.833 3.25173 122.378 1.24724 119.938 1.24724C117.504 1.24724 116.049 3.24655 116.049 6.70131C116.043 10.1768 117.489 12.1709 119.938 12.1709ZM117.654 6.70131C117.654 4.05974 118.519 2.61982 119.938 2.61982C121.363 2.61982 122.228 4.05974 122.228 6.70131C122.228 9.34807 121.373 10.7828 119.938 10.7828C118.509 10.7828 117.649 9.34807 117.654 6.70131ZM129.121 12.1709C131.576 12.1709 133.016 10.1768 133.016 6.70131C133.016 3.25173 131.561 1.24724 129.121 1.24724C126.687 1.24724 125.231 3.24655 125.231 6.70131C125.226 10.1768 126.671 12.1709 129.121 12.1709ZM126.837 6.70131C126.837 4.05974 127.702 2.61982 129.121 2.61982C130.546 2.61982 131.411 4.05974 131.411 6.70131C131.411 9.34807 130.556 10.7828 129.121 10.7828C127.692 10.7828 126.832 9.34807 126.837 6.70131ZM145.084 0.128453H143.686V7.84081H141.044V8.82493H143.686V10.0836H145.084V0.128453ZM134.098 6.1212L134.274 7.23999C135.341 7.24517 136.564 7.23481 137.838 7.18819V9.67438H139.226V7.1105C140.386 7.03798 141.562 6.91885 142.691 6.73239L142.598 5.72755C139.801 6.07976 136.527 6.10566 134.098 6.1212ZM135.124 2.94095C135.124 4.34461 136.45 5.23032 138.397 5.23032C140.314 5.23032 141.645 4.34461 141.655 2.94095C141.645 1.55801 140.314 0.63087 138.397 0.63087C136.45 0.63087 135.124 1.55801 135.124 2.94095ZM135.916 12.9738H145.395V11.8343H137.304V9.10981H135.916V12.9738ZM136.445 2.94095C136.439 2.16402 137.232 1.6616 138.397 1.66678C139.516 1.6616 140.319 2.16402 140.329 2.94095C140.319 3.72307 139.516 4.20994 138.397 4.20994C137.232 4.20994 136.439 3.72307 136.445 2.94095ZM155.334 2.45407V2.09151H158.162V0.967541H151.077V2.09151H153.925V2.46443C153.925 4.24102 152.667 5.99171 150.647 6.68059L151.367 7.78384C152.931 7.23481 154.081 6.07459 154.656 4.63467C155.225 5.92956 156.313 6.98101 157.789 7.48343L158.499 6.4009C156.52 5.72755 155.334 4.10635 155.334 2.45407ZM152.682 9.75207H160.193V13.2431H161.581V8.62293H152.682V9.75207ZM157.758 4.60877H160.193V7.96512H161.581V0.118094H160.193V3.45891H157.758V4.60877ZM174.418 0.128453H173.025V7.36948H174.418V0.128453ZM164.193 1.87396H168.845V3.3346H164.219V7.11568H165.312C167.798 7.1105 169.585 7.04834 171.73 6.70131L171.554 5.56699C169.559 5.90366 167.876 5.95028 165.576 5.96063V4.41195H170.222V0.75H164.193V1.87396ZM165.794 13.0773H174.418V7.99102H173.035V9.41022H167.187V7.99102H165.794V13.0773ZM167.187 11.9482V10.5031H173.035V11.9482H167.187ZM186.908 0.786256H177.921V1.9154H185.525C185.525 2.91505 185.509 4.03902 185.168 5.57735H176.419V6.71167H188.431V5.57735H186.566C186.908 3.98204 186.908 2.80628 186.908 1.78073V0.786256ZM177.88 13.0773H186.923V8.37949H177.88V13.0773ZM179.242 11.9482V9.47238H185.546V11.9482H179.242ZM197.723 3.9924V2.58874H200.716V1.43888H193.32V2.58874H196.314V3.9924C196.303 6.24551 194.838 8.71616 192.859 9.63812L193.672 10.7362C195.195 9.99551 196.428 8.40021 197.039 6.53557C197.65 8.2759 198.872 9.72617 200.421 10.4099L201.183 9.31181C199.163 8.452 197.723 6.18336 197.723 3.9924ZM202.369 13.2431H203.767V0.118094H202.369V13.2431ZM208.674 7.61291H207.302V13.0773H216.247V7.61291H214.869V9.2393H208.674V7.61291ZM205.784 6.54075H217.796V5.40642H215.926C216.273 3.8163 216.273 2.68715 216.273 1.69268V0.698204H207.286V1.83253H214.89C214.89 2.79592 214.874 3.89917 214.558 5.40642H205.784V6.54075ZM208.674 11.943V10.3218H214.869V11.943H208.674ZM221.092 1.39226H219.377L219.512 8.94406H220.957L221.092 1.39226ZM219.201 11.0625C219.191 11.6323 219.668 12.0984 220.242 12.0984C220.802 12.0984 221.278 11.6323 221.278 11.0625C221.278 10.4927 220.802 10.0266 220.242 10.0266C219.668 10.0266 219.191 10.4927 219.201 11.0625Z" fill="white"/>
</svg>
