<svg width="193" height="13" viewBox="0 0 193 13" fill="none" xmlns="http://www.w3.org/2000/svg">
<path d="M5.15633 4.06008V2.84358H7.75094V1.84703H1.34072V2.84358H3.93534V4.06008C3.92636 6.01278 2.65598 8.15401 0.941205 8.95304L1.64597 9.9047C2.96572 9.26278 4.03409 7.88018 4.56379 6.26416C5.09348 7.77244 6.15288 9.02935 7.49507 9.62189L8.15495 8.67023C6.40426 7.92507 5.15633 5.95891 5.15633 4.06008ZM9.18292 12.0773H10.3949V0.702348H9.18292V12.0773ZM21.2331 1.28142H13.4448V2.26001H20.0346C20.0346 3.12638 20.0211 4.10048 19.7248 5.4337H12.143V6.41678H22.5529V5.4337H20.9368C21.2331 4.0511 21.2331 3.03211 21.2331 2.1433V1.28142ZM13.4089 11.9337H21.2466V7.86222H13.4089V11.9337ZM14.5895 10.9551V8.80939H20.0525V10.9551H14.5895ZM35.8265 0.702348H34.6235V12.0773H35.8265V0.702348ZM26.4805 8.98446L26.6511 9.98999C28.734 9.98999 31.4857 9.95856 34.0085 9.54109L33.9187 8.63432C32.9177 8.7645 31.8538 8.8453 30.8034 8.89468V7.79489C32.1186 7.61084 32.976 6.82976 32.976 5.72997C32.976 4.44613 31.8448 3.60221 30.1839 3.60221C28.532 3.60221 27.4142 4.44613 27.4232 5.72997C27.4142 6.83874 28.2761 7.62431 29.6003 7.79938V8.93957C28.4871 8.97099 27.4187 8.97997 26.4805 8.98446ZM26.7184 3.02313H33.6628V2.05801H30.8079V0.724793H29.6003V2.05801H26.7184V3.02313ZM28.5589 5.72997C28.5499 5.00276 29.2278 4.53591 30.1839 4.53591C31.158 4.53591 31.8269 5.00276 31.8269 5.72997C31.8269 6.45269 31.158 6.90159 30.1839 6.8971C29.2278 6.90159 28.5499 6.45269 28.5589 5.72997ZM47.0552 0.711326H45.8432V7.39537H43.5538V8.24827H45.8432V9.33909H47.0552V0.711326ZM37.5342 5.90504L37.6868 6.87465C38.6115 6.87914 39.6709 6.87017 40.7752 6.82976V8.98446H41.9782V6.76243C42.9837 6.69959 44.0027 6.59634 44.9813 6.43474L44.9005 5.56388C42.4765 5.86913 39.6395 5.89157 37.5342 5.90504ZM38.423 3.14883C38.423 4.36533 39.5721 5.13294 41.26 5.13294C42.9209 5.13294 44.0746 4.36533 44.0835 3.14883C44.0746 1.95028 42.9209 1.14675 41.26 1.14675C39.5721 1.14675 38.423 1.95028 38.423 3.14883ZM39.1098 11.8439H47.3246V10.8564H40.3128V8.49517H39.1098V11.8439ZM39.5676 3.14883C39.5632 2.47548 40.25 2.04005 41.26 2.04454C42.2296 2.04005 42.9254 2.47548 42.9344 3.14883C42.9254 3.82666 42.2296 4.24862 41.26 4.24862C40.25 4.24862 39.5632 3.82666 39.5676 3.14883ZM57.624 0.702348H56.4165V12.0639H57.624V6.2462H59.3882V5.23619H57.624V0.702348ZM48.7673 9.03384L49.4407 9.96754C53.189 8.12258 54.6389 5.18681 54.6479 1.90539H49.3374V2.90193H53.4224C53.1665 5.5549 51.6223 7.61084 48.7673 9.03384ZM69.369 0.702348H68.1615V6.80732H69.369V0.702348ZM60.1622 3.87155C60.1622 5.42023 61.446 6.50207 63.1922 6.49758C64.9339 6.50207 66.2133 5.42023 66.2133 3.87155C66.2133 2.30041 64.9339 1.21858 63.1922 1.22755C61.446 1.21858 60.1622 2.30041 60.1622 3.87155ZM61.3427 3.87155C61.3338 2.89296 62.1104 2.23308 63.1922 2.24206C64.2606 2.23308 65.0327 2.89296 65.0327 3.87155C65.0327 4.84565 64.2606 5.50104 63.1922 5.50552C62.1104 5.50104 61.3338 4.84565 61.3427 3.87155ZM61.9218 11.9337H69.369V7.35946H68.1704V8.63432H63.1024V7.35946H61.9218V11.9337ZM63.1024 10.9506V9.58598H68.1704V10.9506H63.1024ZM75.2783 3.59772V1.64952H74.0663V3.59772C74.0573 5.77037 72.8004 7.94302 71.0093 8.74206L71.7545 9.74758C73.1146 9.08771 74.1605 7.7096 74.6857 6.0442C75.2199 7.60186 76.2524 8.88122 77.5587 9.50518L78.2859 8.54454C76.5217 7.76796 75.2693 5.6761 75.2783 3.59772ZM79.3139 12.0998H80.5259V0.702348H79.3139V12.0998ZM88.9021 11.1257C90.8099 11.1257 92.1745 9.82838 92.17 8.02383C92.1745 6.24171 90.8952 4.96236 89.1624 4.96236C88.4622 4.96236 87.8202 5.21374 87.4342 5.57286H87.3444L87.6586 3.00518H91.7077V1.80663H86.5005L85.899 6.92403H87.2142C87.533 6.35843 88.0941 6.11153 88.8392 6.11602C89.9884 6.125 90.8144 6.9375 90.8144 8.05525C90.8144 9.15055 90.0153 9.95407 88.9021 9.95407C87.9684 9.95407 87.2187 9.38398 87.1514 8.59841H85.7912C85.8496 10.0663 87.1559 11.1257 88.9021 11.1257ZM96.7882 11.1481C98.916 11.1481 100.164 9.41989 100.164 6.4078C100.164 3.41816 98.9025 1.68094 96.7882 1.68094C94.6784 1.68094 93.417 3.41367 93.417 6.4078C93.4125 9.41989 94.6649 11.1481 96.7882 11.1481ZM94.8086 6.4078C94.8086 4.11844 95.5582 2.87051 96.7882 2.87051C98.0227 2.87051 98.7723 4.11844 98.7723 6.4078C98.7723 8.70166 98.0316 9.9451 96.7882 9.9451C95.5493 9.9451 94.8041 8.70166 94.8086 6.4078ZM104.747 11.1481C106.874 11.1481 108.122 9.41989 108.122 6.4078C108.122 3.41816 106.861 1.68094 104.747 1.68094C102.637 1.68094 101.375 3.41367 101.375 6.4078C101.371 9.41989 102.623 11.1481 104.747 11.1481ZM102.767 6.4078C102.767 4.11844 103.517 2.87051 104.747 2.87051C105.981 2.87051 106.731 4.11844 106.731 6.4078C106.731 8.70166 105.99 9.9451 104.747 9.9451C103.508 9.9451 102.763 8.70166 102.767 6.4078ZM112.705 11.1481C114.833 11.1481 116.081 9.41989 116.081 6.4078C116.081 3.41816 114.819 1.68094 112.705 1.68094C110.595 1.68094 109.334 3.41367 109.334 6.4078C109.329 9.41989 110.582 11.1481 112.705 11.1481ZM110.725 6.4078C110.725 4.11844 111.475 2.87051 112.705 2.87051C113.94 2.87051 114.689 4.11844 114.689 6.4078C114.689 8.70166 113.949 9.9451 112.705 9.9451C111.466 9.9451 110.721 8.70166 110.725 6.4078ZM126.54 0.711326H125.328V7.39537H123.038V8.24827H125.328V9.33909H126.54V0.711326ZM117.018 5.90504L117.171 6.87465C118.096 6.87914 119.155 6.87017 120.26 6.82976V8.98446H121.463V6.76243C122.468 6.69959 123.487 6.59634 124.466 6.43474L124.385 5.56388C121.961 5.86913 119.124 5.89157 117.018 5.90504ZM117.907 3.14883C117.907 4.36533 119.056 5.13294 120.744 5.13294C122.405 5.13294 123.559 4.36533 123.568 3.14883C123.559 1.95028 122.405 1.14675 120.744 1.14675C119.056 1.14675 117.907 1.95028 117.907 3.14883ZM118.594 11.8439H126.809V10.8564H119.797V8.49517H118.594V11.8439ZM119.052 3.14883C119.047 2.47548 119.734 2.04005 120.744 2.04454C121.714 2.04005 122.41 2.47548 122.419 3.14883C122.41 3.82666 121.714 4.24862 120.744 4.24862C119.734 4.24862 119.047 3.82666 119.052 3.14883ZM135.423 2.72686V2.41264H137.874V1.43854H131.733V2.41264H134.202V2.73584C134.202 4.27555 133.111 5.79282 131.361 6.38985L131.984 7.34599C133.34 6.87017 134.337 5.86464 134.835 4.61671C135.329 5.73895 136.271 6.65021 137.551 7.08564L138.166 6.14744C136.451 5.56388 135.423 4.15884 135.423 2.72686ZM133.125 9.0518H139.634V12.0773H140.837V8.0732H133.125V9.0518ZM137.524 4.59427H139.634V7.50311H140.837V0.702348H139.634V3.59772H137.524V4.59427ZM151.962 0.711326H150.755V6.98688H151.962V0.711326ZM143.101 2.2241H147.132V3.48999H143.123V6.76692H144.071C146.225 6.76243 147.774 6.70856 149.632 6.4078L149.48 5.42472C147.752 5.71651 146.293 5.75691 144.3 5.76588V4.42369H148.326V1.25H143.101V2.2241ZM144.488 11.9337H151.962V7.52555H150.764V8.75552H145.696V7.52555H144.488V11.9337ZM145.696 10.9551V9.70269H150.764V10.9551H145.696ZM162.787 1.28142H154.999V2.26001H161.588C161.588 3.12638 161.575 4.10048 161.279 5.4337H153.697V6.41678H164.107V5.4337H162.491C162.787 4.0511 162.787 3.03211 162.787 2.1433V1.28142ZM154.963 11.9337H162.8V7.86222H154.963V11.9337ZM156.143 10.9551V8.80939H161.606V10.9551H156.143ZM172.16 4.06008V2.84358H174.754V1.84703H168.344V2.84358H170.939V4.06008C170.93 6.01278 169.659 8.15401 167.944 8.95304L168.649 9.9047C169.969 9.26278 171.037 7.88018 171.567 6.26416C172.097 7.77244 173.156 9.02935 174.498 9.62189L175.158 8.67023C173.408 7.92507 172.16 5.95891 172.16 4.06008ZM176.186 12.0773H177.398V0.702348H176.186V12.0773ZM181.651 7.19786H180.462V11.9337H188.214V7.19786H187.02V8.60739H181.651V7.19786ZM179.146 6.26865H189.556V5.28557H187.936C188.236 3.90746 188.236 2.92887 188.236 2.06699V1.20511H180.448V2.18819H187.038C187.038 3.02313 187.024 3.97928 186.751 5.28557H179.146V6.26865ZM181.651 10.9506V9.54558H187.02V10.9506H181.651ZM192.413 1.80663H190.927L191.044 8.35152H192.296L192.413 1.80663ZM190.774 10.1875C190.766 10.6813 191.178 11.0853 191.677 11.0853C192.162 11.0853 192.575 10.6813 192.575 10.1875C192.575 9.69372 192.162 9.28971 191.677 9.28971C191.178 9.28971 190.766 9.69372 190.774 10.1875Z" fill="white"/>
</svg>
