<svg width="48" height="48" viewBox="0 0 48 48" fill="none" xmlns="http://www.w3.org/2000/svg">
<path d="M8.59012 16.7209C8.95205 16.296 9.47135 16.0285 10.0379 15.9656H10.0693H17.1193L17.5835 13.5264C17.6622 13.0858 17.8903 12.6924 18.2051 12.4328C18.5119 12.1574 18.9211 12 19.346 12H23.9803H28.6698C29.0947 12 29.4881 12.1574 29.8107 12.4328C30.1175 12.6924 30.3457 13.0858 30.4323 13.5264L30.8807 15.9656H37.9385H37.9621C38.5286 16.0207 39.0479 16.296 39.4178 16.7209C39.7797 17.1301 40 17.6808 40 18.2946V34.6447C40 35.2978 39.7482 35.88 39.3469 36.297C38.9378 36.7219 38.3791 36.9816 37.7654 36.9816H10.2424C9.62085 36.9816 9.06221 36.7219 8.65306 36.297C8.25178 35.8721 8 35.2899 8 34.6447V18.2946C8 17.6808 8.22818 17.1301 8.59012 16.7209ZM24.9953 20.8989C24.6491 20.836 24.2872 20.7888 23.9095 20.7888C23.5318 20.7888 23.1699 20.836 22.8237 20.8989C22.5011 20.9619 22.2021 21.0484 21.911 21.1665L21.7772 21.2215C21.4389 21.3632 21.1242 21.5284 20.8173 21.733C20.5183 21.9375 20.2351 22.1657 19.9754 22.4254C19.7158 22.685 19.4876 22.9683 19.283 23.2673C19.0784 23.5663 18.9053 23.8889 18.7716 24.2351L18.7244 24.3531C18.6063 24.6442 18.5119 24.9589 18.449 25.2737C18.3782 25.6277 18.3388 25.9897 18.3388 26.3595C18.3388 26.7293 18.3782 27.0991 18.449 27.4532C18.5119 27.76 18.5985 28.0747 18.7165 28.3659L18.7716 28.4918C18.9132 28.8301 19.0784 29.1606 19.283 29.4517C19.4876 29.7507 19.7158 30.0418 19.9754 30.2936V30.3014C20.2351 30.5611 20.5183 30.7893 20.8173 30.9939C21.1242 31.1906 21.4389 31.3637 21.7772 31.4974L21.911 31.5525C22.2021 31.6705 22.509 31.7571 22.8237 31.82C23.1699 31.8908 23.5318 31.9302 23.9095 31.9302C24.2872 31.9302 24.6491 31.8987 24.9953 31.82C25.3258 31.7571 25.6248 31.6705 25.9316 31.5525L26.0497 31.4974C26.388 31.3637 26.7027 31.1906 27.0096 30.9939C27.3164 30.7893 27.5997 30.5611 27.8515 30.3014L27.8594 30.2936C28.119 30.0339 28.3472 29.7507 28.5518 29.4517C28.7485 29.1606 28.9216 28.8301 29.0553 28.4918L29.1104 28.358C29.2284 28.0669 29.315 27.76 29.3779 27.4532C29.4487 27.0991 29.4881 26.7293 29.4881 26.3595C29.4881 25.9975 29.4487 25.6277 29.3779 25.2737C29.315 24.9511 29.2284 24.6442 29.1104 24.3531L29.0553 24.2351C28.9216 23.8889 28.7406 23.5663 28.5518 23.2673C28.3472 22.9683 28.119 22.6772 27.8594 22.4254H27.8515C27.5918 22.1657 27.3086 21.9375 27.0096 21.733C26.7106 21.5284 26.388 21.3632 26.0497 21.2215L25.9159 21.1665C25.6169 21.0484 25.3101 20.9619 24.9953 20.8989Z" stroke="black" stroke-miterlimit="10"/>
</svg>
