<svg width="28" height="28" viewBox="0 0 28 28" fill="none" xmlns="http://www.w3.org/2000/svg">
<path d="M3.56152 5.22363H7.43193L10.6908 18.3962H18.6823C20.5275 18.3962 22.1332 17.1341 22.5691 15.3412L24.3825 7.88258H8.47486" stroke="#111111" stroke-width="2" stroke-linecap="round" stroke-linejoin="round"/>
<path fill-rule="evenodd" clip-rule="evenodd" d="M11.9746 22.5303C11.9746 23.4967 11.191 24.2803 10.2246 24.2803C9.25819 24.2803 8.47461 23.4967 8.47461 22.5303C8.47461 21.5639 9.25819 20.7803 10.2246 20.7803C11.191 20.7803 11.9746 21.5639 11.9746 22.5303Z" fill="#111111"/>
<path fill-rule="evenodd" clip-rule="evenodd" d="M22.8135 22.5303C22.8135 23.4967 22.0299 24.2803 21.0635 24.2803C20.0971 24.2803 19.3135 23.4967 19.3135 22.5303C19.3135 21.5639 20.0971 20.7803 21.0635 20.7803C22.0299 20.7803 22.8135 21.5639 22.8135 22.5303Z" fill="#111111"/>
</svg>
