<svg width="48" height="48" viewBox="0 0 48 48" fill="none" xmlns="http://www.w3.org/2000/svg">
<circle cx="24" cy="24" r="23.25" fill="white" stroke="#EEEEEE" stroke-width="1.5"/>
<path d="M11.8003 16.6006H15.3471L19.565 30.1888H27.2181C29.2047 30.1888 30.9563 28.8861 31.5278 26.9834L33.8003 19.4181H16.3297" stroke="#333333" stroke-width="1.5" stroke-linecap="round" stroke-linejoin="round"/>
<path fill-rule="evenodd" clip-rule="evenodd" d="M20.7705 33.6377C20.7705 34.328 20.2108 34.8877 19.5205 34.8877C18.8302 34.8877 18.2705 34.328 18.2705 33.6377C18.2705 32.9474 18.8302 32.3877 19.5205 32.3877C20.2108 32.3877 20.7705 32.9474 20.7705 33.6377Z" fill="#333333"/>
<path fill-rule="evenodd" clip-rule="evenodd" d="M30.7358 33.6377C30.7358 34.328 30.1761 34.8877 29.4858 34.8877C28.7955 34.8877 28.2358 34.328 28.2358 33.6377C28.2358 32.9474 28.7955 32.3877 29.4858 32.3877C30.1761 32.3877 30.7358 32.9474 30.7358 33.6377Z" fill="#333333"/>
</svg>
