<svg width="24" height="24" viewBox="0 0 24 24" fill="none" xmlns="http://www.w3.org/2000/svg">
<rect x="0.75" y="0.75" width="22.5" height="22.5" rx="11.25" fill="white" stroke="#DDDDDD" stroke-width="1.5"/>
<path fill-rule="evenodd" clip-rule="evenodd" d="M7.67334 12.3889L11.1733 15.5L7.67334 12.3889Z" fill="#DDDDDD"/>
<path d="M8.17161 11.8283L7.61106 11.3301L6.61451 12.4512L7.17507 12.9494L8.17161 11.8283ZM10.6751 16.0606L11.2356 16.5588L12.2322 15.4377L11.6716 14.9394L10.6751 16.0606ZM7.17507 12.9494L10.6751 16.0606L11.6716 14.9394L8.17161 11.8283L7.17507 12.9494Z" fill="#DDDDDD"/>
<path fill-rule="evenodd" clip-rule="evenodd" d="M16.525 9.53273L11.1708 15.4832L16.525 9.53273Z" fill="#DDDDDD"/>
<path d="M17.0825 10.0344L17.5842 9.47686L16.4691 8.47354L15.9674 9.03107L17.0825 10.0344ZM10.6133 14.9815L10.1116 15.5391L11.2267 16.5424L11.7283 15.9848L10.6133 14.9815ZM15.9674 9.03107L10.6133 14.9815L11.7283 15.9848L17.0825 10.0344L15.9674 9.03107Z" fill="#DDDDDD"/>
</svg>
