<svg width="48" height="48" viewBox="0 0 48 48" fill="none" xmlns="http://www.w3.org/2000/svg">
<circle cx="23.999" cy="24" r="24" fill="#111111"/>
<mask id="mask0_243_2144" style="mask-type:alpha" maskUnits="userSpaceOnUse" x="14" y="17" width="20" height="19">
<path fill-rule="evenodd" clip-rule="evenodd" d="M14 17.0003H34V35.0003H14V17.0003Z" fill="white"/>
</mask>
<g mask="url(#mask0_243_2144)">
<path fill-rule="evenodd" clip-rule="evenodd" d="M30.7049 23.8936C30.6768 20.8966 33.2475 19.4386 33.3653 19.3707C31.9094 17.3222 29.6526 17.0424 28.8594 17.0199C26.964 16.8274 25.1255 18.1144 24.1603 18.1144C23.1752 18.1144 21.6884 17.0385 20.0861 17.07C18.0241 17.1009 16.0949 18.2529 15.037 20.0421C12.8533 23.6899 14.4819 29.0507 16.574 31.9993C17.6204 33.4442 18.843 35.0555 20.4436 34.9989C22.0092 34.9373 22.5943 34.0356 24.4838 34.0356C26.3559 34.0356 26.9053 34.9989 28.5377 34.9619C30.2181 34.9373 31.2761 33.512 32.2861 32.0542C33.4954 30.4008 33.9811 28.769 34 28.6851C33.9618 28.673 30.7375 27.4855 30.7049 23.8936Z" fill="white"/>
</g>
<path fill-rule="evenodd" clip-rule="evenodd" d="M26.7062 15.1647C27.5539 14.0513 28.134 12.5369 27.9732 11.0001C26.7462 11.057 25.2118 11.8912 24.3282 12.98C23.5466 13.9395 22.8481 15.512 23.0288 16.9907C24.407 17.0987 25.8219 16.2605 26.7062 15.1647Z" fill="white"/>
</svg>
