<svg width="40" height="40" viewBox="0 0 40 40" fill="none" xmlns="http://www.w3.org/2000/svg">
<rect width="40" height="40" rx="20" fill="#111111"/>
<path d="M10.6161 18.245L10.6163 18.2437C11.4296 13.2504 16.2814 9.82128 21.4838 10.6138C26.6818 11.4056 30.1956 16.1096 29.383 21.0995C28.5698 26.0924 23.7187 29.5214 18.5168 28.7296C17.7051 28.6017 16.9464 28.3639 16.2195 28.0494L16.0542 27.9779L15.8813 28.0282L10.914 29.4732C10.9148 29.4679 10.9161 29.4622 10.918 29.4563L10.9232 29.4404L10.9273 29.4242L12.067 24.9382L12.1213 24.7244L12 24.5402C10.8029 22.7209 10.2387 20.5264 10.6161 18.245Z" stroke="white" stroke-miterlimit="10"/>
<circle cx="16.8182" cy="19.8182" r="0.818182" fill="white"/>
<circle cx="20.4549" cy="19.8182" r="0.818182" fill="white"/>
<circle cx="24.0916" cy="19.8182" r="0.818182" fill="white"/>
</svg>
