<svg width="40" height="40" viewBox="0 0 40 40" fill="none" xmlns="http://www.w3.org/2000/svg">
<circle cx="20" cy="20" r="20" fill="#FEE500"/>
<path fill-rule="evenodd" clip-rule="evenodd" d="M26.2021 22.8447H24.8733V19.8473C24.8733 19.1575 24.4713 18.7862 23.8535 18.7862C23.1634 18.7862 22.7206 19.2083 22.7206 20.0634V22.8447H21.3916V15.5133H22.7206V18.2709C23.0395 17.7871 23.555 17.5504 24.2552 17.5504C24.8219 17.5504 25.2853 17.7355 25.6454 18.1165C26.0164 18.4979 26.2021 19.0127 26.2021 19.6824V22.8447ZM16.6484 21.5929C17.6285 21.5929 18.467 21.0064 18.7195 20.0999H20.1689C19.8145 21.8446 18.4566 22.9877 16.6484 22.9877C14.5463 22.9877 12.8802 21.4206 12.8802 19.2386C12.8802 17.0572 14.5463 15.4895 16.6484 15.4895C18.4749 15.4895 19.8423 16.656 20.1795 18.4311H18.7336C18.514 17.4662 17.6464 16.8647 16.6484 16.8647C15.2351 16.8647 14.2949 17.8728 14.2949 19.2386C14.2949 20.6055 15.3636 21.5929 16.6484 21.5929ZM20.0001 10C14.4767 10 10 14.1411 10 19.2494C10 23.0222 11.5802 24.8234 13.7445 26.4653L13.7546 26.4702V30.8975C13.7546 31.1067 13.9932 31.2261 14.1606 31.1013L17.9524 28.285L18.0345 28.32C18.67 28.4372 19.3272 28.4994 20.0001 28.4994C25.523 28.4994 30 24.3578 30 19.2494C30 14.1411 25.523 10 20.0001 10Z" fill="#000100"/>
</svg>
