<svg width="20" height="20" viewBox="0 0 20 20" fill="none" xmlns="http://www.w3.org/2000/svg">
<rect x="2.5" y="5.4165" width="15" height="0.833333" fill="#111111"/>
<path d="M7.16666 3.4165H12.8333V5.74984H7.16666V3.4165Z" stroke="#111111"/>
<path d="M4.66666 6.4165C4.66666 6.14036 4.89051 5.9165 5.16666 5.9165H14.8333C15.1095 5.9165 15.3333 6.14036 15.3333 6.4165V14.0832C15.3333 15.4639 14.214 16.5832 12.8333 16.5832H7.16666C5.78595 16.5832 4.66666 15.4639 4.66666 14.0832V6.4165Z" stroke="#111111"/>
<path d="M8.33332 9.5835V12.9168" stroke="#111111" stroke-linecap="square"/>
<path d="M12.1667 9.5835V9.0835H11.1667V9.5835H12.1667ZM11.1667 12.9168V13.4168H12.1667V12.9168H11.1667ZM11.1667 9.5835V12.9168H12.1667V9.5835H11.1667Z" fill="#111111"/>
</svg>
