<svg width="33" height="33" viewBox="0 0 33 33" fill="none" xmlns="http://www.w3.org/2000/svg">
<path fill-rule="evenodd" clip-rule="evenodd" d="M23.6788 18.8936H21.9848V15.0724C21.9848 14.193 21.4723 13.7197 20.6847 13.7197C19.805 13.7197 19.2405 14.2578 19.2405 15.3479V18.8936H17.5461V9.54717H19.2405V13.0627C19.647 12.446 20.3043 12.1442 21.1969 12.1442C21.9193 12.1442 22.5101 12.3801 22.9692 12.8659C23.4422 13.3521 23.6788 14.0083 23.6788 14.8621V18.8936ZM11.4998 17.2983C12.7492 17.2983 13.8182 16.5506 14.1401 15.395H15.9879C15.5361 17.6192 13.805 19.0766 11.4998 19.0766C8.81994 19.0766 6.69591 17.0786 6.69591 14.297C6.69591 11.516 8.81994 9.51737 11.4998 9.51737C13.8282 9.51737 15.5715 11.0045 16.0015 13.2675H14.1581C13.8781 12.0374 12.7721 11.2706 11.4998 11.2706C9.69797 11.2706 8.49943 12.5558 8.49943 14.297C8.49943 16.0395 9.86186 17.2983 11.4998 17.2983ZM15.7731 2.5188C8.73158 2.5188 3.02441 7.79804 3.02441 14.3105C3.02441 19.1202 5.03895 21.4165 7.79812 23.5097L7.81094 23.5159V29.16C7.81094 29.4268 8.11516 29.5789 8.32861 29.4199L13.1626 25.8295L13.2672 25.8742C14.0774 26.0235 14.9152 26.1028 15.7731 26.1028C22.814 26.1028 28.5215 20.8229 28.5215 14.3105C28.5215 7.79804 22.814 2.5188 15.7731 2.5188Z" fill="#777777"/>
</svg>
