<svg width="32" height="32" viewBox="0 0 32 32" fill="none" xmlns="http://www.w3.org/2000/svg">
<path fill-rule="evenodd" clip-rule="evenodd" d="M29 16.0795C29 8.85588 23.1797 3 16 3C8.82029 3 3 8.85588 3 16.0795C3 22.6078 7.75391 28.0189 13.9688 29V19.8603H10.668V16.0795H13.9688V13.1979C13.9688 9.91987 15.9096 8.10917 18.879 8.10917C20.3013 8.10917 21.7891 8.36463 21.7891 8.36463V11.5834H20.1498C18.5349 11.5834 18.0312 12.5916 18.0312 13.626V16.0795H21.6367L21.0604 19.8603H18.0312V29C24.2461 28.0189 29 22.6078 29 16.0795Z" fill="#777777"/>
<path fill-rule="evenodd" clip-rule="evenodd" d="M20.9707 19.8116L21.5636 16.0757H17.8547V13.6513C17.8547 12.6292 18.3728 11.633 20.034 11.633H21.7203V8.45238C21.7203 8.45238 20.1899 8.19995 18.7268 8.19995C15.6722 8.19995 13.6757 9.98916 13.6757 13.2283V16.0757H10.2803V19.8116H13.6757V28.8429C14.3566 28.9461 15.0544 29 15.7652 29C16.4761 29 17.1739 28.9461 17.8547 28.8429V19.8116H20.9707Z" fill="white"/>
</svg>
