<svg width="32" height="32" viewBox="0 0 32 32" fill="none" xmlns="http://www.w3.org/2000/svg">
<path fill-rule="evenodd" clip-rule="evenodd" d="M23.697 28C26.1255 28 28.0945 26.0331 28.0945 23.6021V8.39404C28.0945 5.96645 26.1255 4 23.697 4H8.30724C5.87965 4 3.91016 5.96645 3.91016 8.39404V23.6021C3.91016 26.0331 5.87965 28 8.30724 28H23.697ZM8.80408 5.96899H22.8382C24.6277 5.96899 26.0796 7.42702 26.0796 9.22125V16.9357C26.0796 18.7308 24.6277 20.1862 22.8382 20.1862H18.0034L16.3554 22.871C16.3554 22.871 16.3406 22.9049 16.299 22.9526C16.2018 23.1148 16.0261 23.2272 15.8222 23.2272C15.6166 23.2272 15.4387 23.1148 15.3416 22.9487C15.306 22.9049 15.2891 22.871 15.2891 22.871L13.6393 20.1862H8.80408C7.01332 20.1862 5.56527 18.7308 5.56527 16.9357V9.22125C5.56527 7.42702 7.01332 5.96899 8.80408 5.96899Z" fill="#32B24A"/>
<path fill-rule="evenodd" clip-rule="evenodd" d="M9.84412 14.3816C9.39817 14.3816 9.03811 14.0211 9.03811 13.5764C9.03811 13.1292 9.39817 12.7695 9.84412 12.7695C10.2896 12.7695 10.6506 13.1292 10.6506 13.5764C10.6506 14.0211 10.2896 14.3816 9.84412 14.3816ZM10.1218 11.6217C10.1218 11.6217 9.56085 11.6217 9.05199 12.1184V10.1255H7.79785V15.3568H9.06631V14.9473C9.06631 14.9473 9.3652 15.4891 10.1218 15.4891C10.1218 15.4891 11.8904 15.4219 11.8904 13.5326C11.8904 13.5326 11.8249 11.6217 10.1218 11.6217Z" fill="#F27629"/>
<path fill-rule="evenodd" clip-rule="evenodd" d="M12.2949 10.0051V11.2181C12.2949 11.2181 12.8662 11.192 12.8662 12.2609V15.3566H14.0779V11.9742C14.0779 11.9742 14.1304 10.0051 12.2949 10.0051Z" fill="#F27629"/>
<path fill-rule="evenodd" clip-rule="evenodd" d="M17.0388 14.3815C16.592 14.3815 16.2323 14.021 16.2323 13.5764C16.2323 13.1291 16.592 12.7695 17.0388 12.7695C17.4843 12.7695 17.8452 13.1291 17.8452 13.5764C17.8452 14.021 17.4843 14.3815 17.0388 14.3815ZM17.0383 11.6394C17.0383 11.6394 14.9621 11.6394 14.9621 13.5764C14.9621 13.5764 14.8962 15.489 17.0383 15.489C17.0383 15.489 19.1614 15.4851 19.1614 13.5764C19.1614 13.5764 19.2312 11.6394 17.0383 11.6394Z" fill="#F27629"/>
<path fill-rule="evenodd" clip-rule="evenodd" d="M21.8755 14.3814C21.43 14.3814 21.0682 14.0209 21.0682 13.5763C21.0682 13.129 21.43 12.7694 21.8755 12.7694C22.3214 12.7694 22.6815 13.129 22.6815 13.5763C22.6815 14.0209 22.3214 14.3814 21.8755 14.3814ZM22.6255 11.7616V12.1182C22.6255 12.1182 22.2646 11.6393 21.5709 11.6393C21.5709 11.6393 19.7949 11.5621 19.7949 13.5624C19.7949 13.5624 19.7758 15.426 21.5224 15.426C21.5224 15.426 22.2342 15.4538 22.6255 14.9471V15.2399C22.6255 15.2399 22.7149 16.1583 21.8256 16.1583H21.5224V17.2701H22.0113C22.0113 17.2701 23.8467 17.2901 23.8467 15.3093V11.7616H22.6255Z" fill="#F27629"/>
</svg>
