<svg width="32" height="32" viewBox="0 0 32 32" fill="none" xmlns="http://www.w3.org/2000/svg">
<path fill-rule="evenodd" clip-rule="evenodd" d="M23.8424 9.59431C23.8424 10.3896 23.1977 11.0343 22.4024 11.0343C21.6072 11.0343 20.9624 10.3896 20.9624 9.59431C20.9624 8.79903 21.6072 8.15431 22.4024 8.15431C23.1977 8.15431 23.8424 8.79903 23.8424 9.59431ZM15.9971 20.0001C13.788 20.0001 11.9971 18.2092 11.9971 16C11.9971 13.7909 13.788 12 15.9971 12C18.2062 12 19.9972 13.7909 19.9972 16C19.9972 18.2092 18.2062 20.0001 15.9971 20.0001ZM15.9971 9.83782C12.5939 9.83782 9.8349 12.5967 9.8349 16C9.8349 19.4032 12.5939 22.1622 15.9971 22.1622C19.4003 22.1622 22.1593 19.4032 22.1593 16C22.1593 12.5967 19.4003 9.83782 15.9971 9.83782ZM15.9971 4C12.738 4 12.3295 4.01378 11.0495 4.07219C9.77226 4.1305 8.89991 4.33328 8.1366 4.62991C7.34751 4.93666 6.67832 5.34691 6.0112 6.01413C5.34407 6.68116 4.93373 7.35034 4.62707 8.13944C4.33045 8.90284 4.12757 9.77509 4.06926 11.0524C4.01085 12.3323 3.99707 12.741 3.99707 16C3.99707 19.2589 4.01085 19.6677 4.06926 20.9476C4.12757 22.2248 4.33045 23.0972 4.62707 23.8604C4.93373 24.6495 5.34407 25.3188 6.0112 25.9859C6.67832 26.653 7.34751 27.0633 8.1366 27.37C8.89991 27.6666 9.77226 27.8695 11.0495 27.9278C12.3295 27.9861 12.738 28 15.9971 28C19.2561 28 19.6649 27.9861 20.9446 27.9278C22.222 27.8695 23.0942 27.6666 23.8575 27.37C24.6466 27.0633 25.3159 26.653 25.983 25.9859C26.6501 25.3188 27.0604 24.6496 27.3672 23.8604C27.6638 23.0972 27.8666 22.2248 27.9249 20.9476C27.9833 19.6677 27.9971 19.2589 27.9971 16C27.9971 12.741 27.9833 12.3323 27.9249 11.0524C27.8666 9.77509 27.6638 8.90284 27.3672 8.13944C27.0604 7.35034 26.6501 6.68116 25.983 6.01413C25.3159 5.34691 24.6466 4.93666 23.8575 4.62991C23.0942 4.33328 22.222 4.1305 20.9446 4.07219C19.6649 4.01378 19.2561 4 15.9971 4ZM15.9971 6.16219C19.2013 6.16219 19.5808 6.17438 20.8461 6.23213C22.0161 6.28557 22.6515 6.48104 23.0745 6.64529C23.6345 6.86297 24.0343 7.12304 24.4541 7.54294C24.8741 7.96285 25.1341 8.3626 25.3519 8.92276C25.5162 9.34566 25.7117 9.98101 25.765 11.151C25.8228 12.4163 25.835 12.7958 25.835 16C25.835 19.2041 25.8228 19.5836 25.765 20.849C25.7117 22.0191 25.5162 22.6544 25.3519 23.0773C25.1341 23.6374 24.8741 24.0371 24.4541 24.4571C24.0343 24.8769 23.6345 25.1371 23.0745 25.3547C22.6515 25.519 22.0161 25.7145 20.8461 25.7678C19.581 25.8256 19.2015 25.8378 15.9971 25.8378C12.7928 25.8378 12.4132 25.8256 11.1481 25.7678C9.97817 25.7145 9.34273 25.519 8.91992 25.3547C8.35976 25.1371 7.95992 24.8769 7.54001 24.4571C7.1202 24.0371 6.86014 23.6374 6.64245 23.0773C6.47811 22.6544 6.28264 22.0191 6.2293 20.8491C6.17145 19.5836 6.15926 19.2041 6.15926 16C6.15926 12.7958 6.17145 12.4163 6.2293 11.151C6.28264 9.98101 6.47811 9.34566 6.64245 8.92276C6.86014 8.3626 7.1202 7.96285 7.54001 7.54294C7.95992 7.12304 8.35976 6.86297 8.91992 6.64529C9.34273 6.48104 9.97817 6.28557 11.1481 6.23213C12.4134 6.17438 12.793 6.16219 15.9971 6.16219Z" fill="#777777"/>
</svg>
