<svg width="32" height="32" viewBox="0 0 32 32" fill="none" xmlns="http://www.w3.org/2000/svg">
<path fill-rule="evenodd" clip-rule="evenodd" d="M23.6951 28C26.1235 28 28.0926 26.0331 28.0926 23.6021V8.39404C28.0926 5.96645 26.1235 4 23.6951 4H8.30528C5.87769 4 3.9082 5.96645 3.9082 8.39404V23.6021C3.9082 26.0331 5.87769 28 8.30528 28H23.6951ZM8.80256 5.96906H22.8367C24.6261 5.96906 26.0781 7.42708 26.0781 9.22131V16.9357C26.0781 18.7308 24.6261 20.1862 22.8367 20.1862H18.0019L16.3539 22.8711C16.3539 22.8711 16.3391 22.9049 16.2975 22.9526C16.2003 23.1149 16.0246 23.2272 15.8207 23.2272C15.6151 23.2272 15.4372 23.1149 15.34 22.9487C15.3045 22.9049 15.2876 22.8711 15.2876 22.8711L13.6378 20.1862H8.80256C7.0118 20.1862 5.56375 18.7308 5.56375 16.9357V9.22131C5.56375 7.42708 7.0118 5.96906 8.80256 5.96906Z" fill="#777777"/>
<path fill-rule="evenodd" clip-rule="evenodd" d="M9.84217 14.3816C9.39622 14.3816 9.03616 14.0211 9.03616 13.5764C9.03616 13.1292 9.39622 12.7695 9.84217 12.7695C10.2877 12.7695 10.6486 13.1292 10.6486 13.5764C10.6486 14.0211 10.2877 14.3816 9.84217 14.3816ZM10.1198 11.6217C10.1198 11.6217 9.55889 11.6217 9.05004 12.1184V10.1255H7.7959V15.3568H9.06435V14.9473C9.06435 14.9473 9.36325 15.4891 10.1198 15.4891C10.1198 15.4891 11.8884 15.4219 11.8884 13.5326C11.8884 13.5326 11.8229 11.6217 10.1198 11.6217Z" fill="#777777"/>
<path fill-rule="evenodd" clip-rule="evenodd" d="M12.293 10.0051V11.2181C12.293 11.2181 12.8643 11.192 12.8643 12.2609V15.3566H14.0759V11.9742C14.0759 11.9742 14.1284 10.0051 12.293 10.0051Z" fill="#777777"/>
<path fill-rule="evenodd" clip-rule="evenodd" d="M17.0358 14.3815C16.589 14.3815 16.2294 14.021 16.2294 13.5764C16.2294 13.1291 16.589 12.7695 17.0358 12.7695C17.4814 12.7695 17.8423 13.1291 17.8423 13.5764C17.8423 14.021 17.4814 14.3815 17.0358 14.3815ZM17.0354 11.6394C17.0354 11.6394 14.9592 11.6394 14.9592 13.5764C14.9592 13.5764 14.8933 15.489 17.0354 15.489C17.0354 15.489 19.1585 15.4851 19.1585 13.5764C19.1585 13.5764 19.2283 11.6394 17.0354 11.6394Z" fill="#777777"/>
<path fill-rule="evenodd" clip-rule="evenodd" d="M21.8735 14.3814C21.428 14.3814 21.0662 14.0209 21.0662 13.5763C21.0662 13.129 21.428 12.7694 21.8735 12.7694C22.3195 12.7694 22.6795 13.129 22.6795 13.5763C22.6795 14.0209 22.3195 14.3814 21.8735 14.3814ZM22.6236 11.7616V12.1182C22.6236 12.1182 22.2626 11.6393 21.569 11.6393C21.569 11.6393 19.793 11.5621 19.793 13.5624C19.793 13.5624 19.7739 15.426 21.5204 15.426C21.5204 15.426 22.2323 15.4538 22.6236 14.9471V15.2399C22.6236 15.2399 22.7129 16.1583 21.8236 16.1583H21.5204V17.2701H22.0093C22.0093 17.2701 23.8447 17.2901 23.8447 15.3093V11.7616H22.6236Z" fill="#777777"/>
</svg>
