<svg width="33" height="33" viewBox="0 0 33 33" fill="none" xmlns="http://www.w3.org/2000/svg">
<ellipse cx="15.4971" cy="15" rx="10.5" ry="9" fill="black"/>
<path fill-rule="evenodd" clip-rule="evenodd" d="M23.6759 18.8936H21.9819V15.0724C21.9819 14.193 21.4694 13.7197 20.6818 13.7197C19.802 13.7197 19.2376 14.2578 19.2376 15.3479V18.8936H17.5432V9.54717H19.2376V13.0627C19.644 12.446 20.3013 12.1442 21.1939 12.1442C21.9164 12.1442 22.5072 12.3801 22.9663 12.8659C23.4392 13.3521 23.6759 14.0083 23.6759 14.8621V18.8936ZM11.4968 17.2983C12.7463 17.2983 13.8152 16.5506 14.1371 15.395H15.985C15.5332 17.6192 13.8021 19.0766 11.4968 19.0766C8.81701 19.0766 6.69298 17.0786 6.69298 14.297C6.69298 11.516 8.81701 9.51737 11.4968 9.51737C13.8253 9.51737 15.5685 11.0045 15.9985 13.2675H14.1552C13.8752 12.0374 12.7692 11.2706 11.4968 11.2706C9.69504 11.2706 8.4965 12.5558 8.4965 14.297C8.4965 16.0395 9.85893 17.2983 11.4968 17.2983ZM15.7702 2.5188C8.72865 2.5188 3.02148 7.79804 3.02148 14.3105C3.02148 19.1202 5.03602 21.4165 7.79519 23.5097L7.80801 23.5159V29.16C7.80801 29.4268 8.11223 29.5789 8.32568 29.4199L13.1597 25.8295L13.2643 25.8742C14.0744 26.0235 14.9123 26.1028 15.7702 26.1028C22.811 26.1028 28.5185 20.8229 28.5185 14.3105C28.5185 7.79804 22.811 2.5188 15.7702 2.5188Z" fill="#FFE100"/>
</svg>
