<svg width="33" height="32" viewBox="0 0 33 32" fill="none" xmlns="http://www.w3.org/2000/svg">
<circle cx="16.5" cy="16" r="16" fill="#FFE100"/>
<path fill-rule="evenodd" clip-rule="evenodd" d="M22.2592 18.1701H20.9887V15.3043C20.9887 14.6447 20.6044 14.2897 20.0137 14.2897C19.3538 14.2897 18.9305 14.6933 18.9305 15.5109V18.1701H17.6597V11.1603H18.9305V13.797C19.2353 13.3344 19.7283 13.1081 20.3978 13.1081C20.9396 13.1081 21.3827 13.285 21.727 13.6494C22.0817 14.014 22.2592 14.5062 22.2592 15.1465V18.1701ZM13.1249 16.9737C14.062 16.9737 14.8638 16.4129 15.1052 15.5462H16.4911C16.1522 17.2143 14.8539 18.3074 13.1249 18.3074C11.1151 18.3074 9.52205 16.8089 9.52205 14.7227C9.52205 12.6369 11.1151 11.138 13.1249 11.138C14.8713 11.138 16.1787 12.2533 16.5012 13.9506H15.1187C14.9087 13.028 14.0792 12.4529 13.1249 12.4529C11.7736 12.4529 10.8747 13.4168 10.8747 14.7227C10.8747 16.0296 11.8965 16.9737 13.1249 16.9737ZM16.33 5.88904C11.0488 5.88904 6.76843 9.84847 6.76843 14.7328C6.76843 18.3401 8.27934 20.0623 10.3487 21.6322L10.3583 21.6369V25.8699C10.3583 26.07 10.5865 26.1841 10.7466 26.0648L14.3721 23.372L14.4506 23.4056C15.0581 23.5176 15.6865 23.5771 16.33 23.5771C21.6106 23.5771 25.8912 19.6171 25.8912 14.7328C25.8912 9.84847 21.6106 5.88904 16.33 5.88904Z" fill="#111111"/>
</svg>
