<svg width="24" height="24" viewBox="0 0 24 24" fill="none" xmlns="http://www.w3.org/2000/svg">
<path d="M20.25 5.58333L5.58333 20.25" stroke="#BBBBBB" stroke-linejoin="round"/>
<path fill-rule="evenodd" clip-rule="evenodd" d="M8.77569 17.1007C6.5472 16.3057 4.56413 14.6257 2.83849 12C5.34245 8.18986 8.3948 6.35596 11.9999 6.35596C14.0863 6.35596 15.973 6.96847 17.673 8.20334L18.3882 7.48817C16.4896 6.07007 14.3557 5.35596 11.9999 5.35596C7.88344 5.35596 4.48947 7.53138 1.82118 11.7319L1.65088 12L1.82118 12.2681C3.56483 15.0131 5.62111 16.9005 8.00152 17.8748L8.77569 17.1007ZM9.88479 17.4058L9.05344 18.2371C9.29765 18.3021 9.58918 18.3662 9.83117 18.4165C9.99113 18.4498 10.1353 18.4782 10.2396 18.4983C10.2917 18.5084 10.334 18.5164 10.3634 18.5219L10.3974 18.5282L10.4064 18.5299L10.4088 18.5304L10.4095 18.5305L10.4097 18.5305L10.4097 18.5305L10.5001 18.0388L10.4098 18.5305L10.4193 18.5323L10.4289 18.5337C10.9421 18.6074 11.4658 18.6441 11.9999 18.6441C16.1167 18.6441 19.5105 16.4687 22.1788 12.2681L22.3491 12L22.1788 11.7319C21.3449 10.4192 20.4399 9.30272 19.4614 8.38809C19.3644 8.29748 19.2668 8.20884 19.1684 8.12219L18.455 8.8356L18.7843 9.12409C19.6237 9.90967 20.4167 10.8669 21.1615 12C18.6575 15.8102 15.6054 17.6441 11.9999 17.6441C11.5152 17.6441 11.0423 17.6111 10.581 17.5452L10.5798 17.545L10.5479 17.5391C10.52 17.5338 10.4793 17.5261 10.429 17.5164C10.3282 17.497 10.1888 17.4695 10.0348 17.4375C9.9855 17.4272 9.93529 17.4166 9.88479 17.4058Z" fill="#BBBBBB"/>
<path fill-rule="evenodd" clip-rule="evenodd" d="M11.3251 15.9652C11.5446 16.0023 11.7702 16.0217 12.0002 16.0217C14.2213 16.0217 16.0219 14.2211 16.0219 12C16.0219 11.7699 16.0026 11.5444 15.9655 11.3249L15.009 12.2814C14.8756 13.7256 13.7259 14.8753 12.2817 15.0087L11.3251 15.9652ZM14.8586 11.0176C14.4509 9.83099 13.3251 8.97827 12.0002 8.97827C10.3314 8.97827 8.97852 10.3311 8.97852 12C8.97852 13.3249 9.83123 14.4506 11.0178 14.8584L10.2529 15.6233C8.90697 14.973 7.97852 13.5949 7.97852 12C7.97852 9.77884 9.77909 7.97827 12.0002 7.97827C13.5952 7.97827 14.9733 8.90673 15.6235 10.2527L14.8586 11.0176Z" fill="#BBBBBB"/>
</svg>
