<svg width="16" height="16" viewBox="0 0 16 16" fill="none" xmlns="http://www.w3.org/2000/svg">
<path d="M8 1.5C11.5899 1.5 14.5 4.41015 14.5 8C14.5 11.5899 11.5899 14.5 8 14.5C4.41015 14.5 1.5 11.5899 1.5 8C1.5 4.41015 4.41015 1.5 8 1.5Z" stroke="#BBBBBB"/>
<path d="M6.7002 5.93994C6.86909 5.31331 7.31613 5 8.0413 5C9.1525 5 9.5002 5.79802 9.5002 6.47318C9.5002 7.14835 9.17779 7.36635 8.77301 7.6613C8.36822 7.95624 7.87708 8.11789 7.87708 8.64049C7.87708 8.80461 7.87708 8.96004 7.87708 9.10679" stroke="#BBBBBB" stroke-linecap="round"/>
<rect x="7.21777" y="10.3545" width="1.37049" height="1.37049" rx="0.685245" fill="#BBBBBB"/>
</svg>
